# xmcd
#
# Track frame offsets: 
#        150
#        13594
#        29913
#        49003
#        66939
#        87442
#        108572
#        123520
#        147238
#        162576
#        180386
#        195333
#        212472
#        229109
#        247562
#        267186
#        285127
#        304200
#
# Disc length: 4218 seconds
#
# Revision: 0
# Processed by: cddbd v1.5.2PL0 Copyright (c) Steve Scherf et al.
# Submitted via: ExactAudioCopy v0.95b4
#
DISCID=f5107812
DTITLE=Shawn Colvin - Another Round of Blues
DYEAR=1900
DGENRE=Blues
TTITLE0=That's the Way Love Goes
TTITLE1=Round of Blues
TTITLE2=Shotgun Down the Avalanch
TTITLE3=Diamond in the Rough
TTITLE4=Polaroids
TTITLE5=I Don't Know Why
TTITLE6=Private Universe
TTITLE7=Window to the World
TTITLE8=Kknwing What I Know Now
TTITLE9=(Looking for) The Heart of Saturday Night
TTITLE10=Every Little Thing He Does is Magic
TTITLE11=Ol' 55
TTITLE12=Fearless Heart
TTITLE13=Trouble
TTITLE14=When the Rainbos Comes
TTITLE15=Between Two Worlds
TTITLE16=Round of Blues (reprise)
TTITLE17=Even Here We Are
EXTD=
EXTT0=
EXTT1=
EXTT2=
EXTT3=
EXTT4=
EXTT5=
EXTT6=
EXTT7=
EXTT8=
EXTT9=
EXTT10=
EXTT11=
EXTT12=
EXTT13=
EXTT14=
EXTT15=
EXTT16=
EXTT17=
PLAYORDER=
